<?xml version="1.0" encoding="UTF-8"?><svg id="Layer_1" xmlns="http://www.w3.org/2000/svg" viewBox="0 0 453.6 390"><defs><style>.cls-1{fill:#fff;}</style></defs><path class="cls-1" d="m0,32h59.2v268H0V32Zm80.8,0h59.2v268h-59.2V32Zm80.8,0c32.4,0,59.2,26.8,59.2,59.6v208.4h-59.2V32Z"/><path class="cls-1" d="m262.8,0h12.8v390h-12.8V0Z"/><path class="cls-1" d="m313.6,240.4V90.8c0-32.4,26.8-58.8,59.2-58.8v268c-32.4,0-59.2-26.8-59.2-59.6ZM394.4,32c32.8,0,59.2,26.4,59.2,58.8v62.4h-59.2V32Zm0,146.8h59.2v62.4c0,32.4-26.4,58.8-59.2,58.8v-121.2Z"/></svg>