<?xml version="1.0" encoding="UTF-8"?><svg id="Layer_1" xmlns="http://www.w3.org/2000/svg" viewBox="0 0 711.59 397.6"><path d="m49.2,58.8h46l62.4,166.4,118.8-166.4h52.4l-49.2,280h-54l31.2-177.2-77.6,106.4c-5.07,6.94-9.94,12-14.6,15.2-4.67,3.2-9.8,4.8-15.4,4.8h-15.2l-48.8-126.4-31.2,177.2H0L49.2,58.8Z"/><path d="m391.2,0h54.4l-70,397.6h-54.4L391.2,0Z"/><path d="m471.39,319.2c-16.67-15.2-25-35.73-25-61.6,0-6.13.66-13.46,2-22l12.8-73.6c5.86-33.33,19.13-59.4,39.8-78.2,20.66-18.8,46.6-28.2,77.8-28.2h42c28,0,50.13,7.34,66.4,22,16.26,14.67,24.4,34.4,24.4,59.2,0,5.87-.67,12.8-2,20.8h-54.4c.8-4.53,1.2-8.93,1.2-13.2,0-12.26-3.34-22-10-29.2-6.67-7.2-16-10.8-28-10.8h-42c-15.74,0-28.94,5.34-39.6,16-10.67,10.67-17.6,25.34-20.8,44l-12,68.8c-1.07,7.47-1.6,12.67-1.6,15.6,0,13.6,3.46,24.4,10.4,32.4,6.93,8,16.53,12,28.8,12h42.8c14.93,0,27.53-5.26,37.8-15.8,10.26-10.53,17.13-25.13,20.6-43.8h54.4c-6.14,34.14-19.34,60.74-39.6,79.8-20.27,19.07-45.47,28.6-75.6,28.6h-42.8c-28.54,0-51.14-7.6-67.8-22.8Z"/></svg>